<mxfile host="app.diagrams.net" modified="2024-03-13T03:13:56.644Z" agent="Mozilla/5.0 (Macintosh; Intel Mac OS X 10_15_7) AppleWebKit/537.36 (KHTML, like Gecko) Chrome/122.0.0.0 Safari/537.36" version="24.0.3" etag="vUw-9G5qKcGB5luoBxiY" type="github">
  <diagram name="第 1 页" id="IWeitN6v90rO395eBXJE">
    <mxGraphModel>
      <root>
        <mxCell id="0" />
        <mxCell id="1" parent="0" />
      </root>
    </mxGraphModel>
  </diagram>
</mxfile>
